name C:\Users\u0101727\Documents\MyRepositories\paper-ad\predictivesimulations_2d/Results/PredSim_2D/IK_c2.mot
datacolumns 11
datarows 25
range 0.00000000 0.23023710
endheader
time	pelvis_tilt	pelvis_tx	pelvis_ty	hip_flexion_l	hip_flexion_r	knee_angle_l	knee_angle_r	ankle_angle_l	ankle_angle_r	lumbar_extension	
          0.00000000	        -15.20029308	          0.00000000	          0.88358380	          1.02392190	         38.12537020	        -16.23655823	        -10.56258340	          5.75233111	         13.84493628	          9.71872662	
          0.00959321	        -15.16225191	          0.01477672	          0.88279561	          0.93008858	         37.64102533	        -17.72970423	         -9.95725681	          4.55210546	         13.39702342	          9.81558608	
          0.01918642	        -15.11317161	          0.02981688	          0.88195615	          0.91497424	         37.06150825	        -19.39030335	         -9.63800620	          3.24815074	         12.89700061	          9.92549231	
          0.02877964	        -15.05560921	          0.04510348	          0.88108886	          0.98581234	         36.31872228	        -21.21527929	         -9.72547852	          1.82061016	         12.34279913	         10.05242067	
          0.03837285	        -14.99777945	          0.06045064	          0.88032072	          1.14723934	         35.45576988	        -23.18608363	        -10.03985987	          0.35492102	         11.77379581	         10.18694729	
          0.04796606	        -14.95065915	          0.07551765	          0.87988139	          1.42609863	         34.59784940	        -25.21021567	        -10.32008605	         -0.92768233	         11.22394184	         10.30583314	
          0.05755927	        -14.92280102	          0.09005747	          0.88003305	          1.85066987	         33.78225760	        -27.14748311	        -10.57840418	         -1.92929501	         10.69307582	         10.39516435	
          0.06715249	        -14.91653774	          0.10400719	          0.88093172	          2.41685851	         33.01146716	        -28.93529304	        -10.80973940	         -2.67921679	         10.19583520	         10.45379992	
          0.07674570	        -14.92717649	          0.11745014	          0.88253648	          3.10785938	         32.26695341	        -30.59435477	        -11.00211169	         -3.18688560	          9.74849380	         10.48788140	
          0.08633891	        -14.94812494	          0.13051052	          0.88463734	          3.90313779	         31.52759962	        -32.15380970	        -11.14659333	         -3.46505203	          9.36251870	         10.50442893	
          0.09593212	        -14.97402085	          0.14329579	          0.88700153	          4.78714554	         30.77659510	        -33.63127329	        -11.23635200	         -3.52928734	          9.04417589	         10.50875182	
          0.10552534	        -15.00142671	          0.15588018	          0.88944623	          5.74786372	         30.00449524	        -35.03521173	        -11.26946908	         -3.39461398	          8.79507318	         10.50404069	
          0.11511855	        -15.02844931	          0.16831063	          0.89184778	          6.77629283	         29.20678100	        -36.36692583	        -11.24638851	         -3.07732845	          8.61416164	         10.49205047	
          0.12471176	        -15.05412651	          0.18061719	          0.89412695	          7.86503551	         28.38191101	        -37.62330045	        -11.16911904	         -2.59416539	          8.49878502	         10.47378973	
          0.13430497	        -15.07796795	          0.19282016	          0.89623332	          9.00791120	         27.53026271	        -38.79946507	        -11.04114727	         -1.96198665	          8.44519151	         10.44987396	
          0.14389819	        -15.09970516	          0.20493463	          0.89813445	         10.19936869	         26.65348782	        -39.88934811	        -10.86732914	         -1.19773491	          8.44881616	         10.42075477	
          0.15349140	        -15.11916627	          0.21697299	          0.89980939	         11.43405529	         25.75418588	        -40.88616062	        -10.65369290	         -0.31857184	          8.50449543	         10.38683950	
          0.16308461	        -15.13622620	          0.22894618	          0.90124547	         12.70653668	         24.83565886	        -41.78273592	        -10.40728034	          0.65811561	          8.60662653	         10.34854670	
          0.17267782	        -15.15079376	          0.24086362	          0.90243785	         14.01148556	         23.90191660	        -42.57146343	        -10.13613174	          1.71476544	          8.74938202	         10.30625956	
          0.18227104	        -15.16285860	          0.25273297	          0.90338980	         15.34386335	         22.95735164	        -43.24416744	         -9.84796195	          2.83370803	          8.92688067	         10.26030484	
          0.19186425	        -15.17254743	          0.26456152	          0.90411200	         16.69766124	         22.00583736	        -43.79335976	         -9.54981064	          3.99712930	          9.13257782	         10.21116442	
          0.20145746	        -15.18001999	          0.27635545	          0.90462153	         18.06709510	         21.05160309	        -44.21134423	         -9.24932439	          5.18718629	          9.35877811	         10.15925673	
          0.21105067	        -15.18541944	          0.28812024	          0.90493929	         19.44670266	         20.09920474	        -44.49026974	         -8.95429700	          6.38606453	          9.59749292	         10.10492190	
          0.22064389	        -15.18889391	          0.29986187	          0.90508681	         20.82994684	         19.15345069	        -44.62323721	         -8.67313303	          7.57597197	          9.84082270	         10.04854129	
          0.23023710	        -15.19066943	          0.31158734	          0.90508446	         22.20995795	         18.21750253	        -44.60459228	         -8.41129360	          8.73924517	         10.08150631	          9.99064994	
